<svg width="50" height="50" viewBox="0 0 50 50" fill="none" xmlns="http://www.w3.org/2000/svg">
<circle cx="25" cy="25" r="25" fill="url(#paint0_linear_323_6)"/>
<path d="M35.0576 19.9449C34.9381 19.5009 34.7041 19.0961 34.3789 18.771C34.0538 18.4459 33.649 18.2119 33.2051 18.0924C31.5701 17.6499 25.0001 17.6499 25.0001 17.6499C25.0001 17.6499 18.4301 17.6499 16.7951 18.0924C16.3511 18.2119 15.9463 18.4459 15.6212 18.771C15.2961 19.0961 15.0621 19.5009 14.9426 19.9449C14.6373 21.6124 14.4891 23.3048 14.5001 24.9999C14.4891 26.695 14.6373 28.3875 14.9426 30.0549C15.0621 30.4989 15.2961 30.9037 15.6212 31.2288C15.9463 31.5539 16.3511 31.7879 16.7951 31.9074C18.4301 32.3499 25.0001 32.3499 25.0001 32.3499C25.0001 32.3499 31.5701 32.3499 33.2051 31.9074C33.649 31.7879 34.0538 31.5539 34.3789 31.2288C34.7041 30.9037 34.9381 30.4989 35.0576 30.0549C35.3629 28.3875 35.511 26.695 35.5001 24.9999C35.511 23.3048 35.3629 21.6124 35.0576 19.9449V19.9449ZM22.9001 28.1499V21.8499L28.3526 24.9999L22.9001 28.1499Z" fill="white"/>
<defs>
<linearGradient id="paint0_linear_323_6" x1="5.1105" y1="-5.43152e-06" x2="48.2386" y2="3.21466" gradientUnits="userSpaceOnUse">
<stop stop-color="#C89AFC"/>
<stop offset="1" stop-color="#7C6AFA"/>
</linearGradient>
</defs>
</svg>
